<?xml version="1.0" encoding="utf-8"?>
<!-- Generator: Adobe Illustrator 21.0.0, SVG Export Plug-In . SVG Version: 6.00 Build 0)  -->
<svg version="1.1" id="Layer_1" xmlns="http://www.w3.org/2000/svg" xmlns:xlink="http://www.w3.org/1999/xlink" x="0px" y="0px"
	 viewBox="0 0 245.8 92.4" style="enable-background:new 0 0 245.8 92.4;" xml:space="preserve">
<style type="text/css">
	.st0{fill:none;}
</style>
<g>
	<polygon class="st0" points="25.9,69.6 22.6,76.3 56,76.3 55.6,69.6 	"/>
	<polygon class="st0" points="52.4,16.5 32.5,56 55,56 	"/>
	<path d="M192.4,30.7l2.3-10.8c0.3-1.5,0.8-2.5,1.3-3c0.6-0.6,1.5-0.9,2.8-0.9h43.7l3.3-15.7h-51.2c-5.4,0-9.3,1.2-11.8,3.5
		c-2.5,2.4-4.3,6-5.4,10.8L172.9,36c-0.2,1.4-0.4,2.6-0.4,3.5c0,2.6,0.7,4.6,2.3,6c1.5,1.4,3.9,2.1,7.2,2.1h32.5
		c2.1,0,3.2,0.7,3.2,2.2c0,0.6,0,1-0.1,1.3l-4.8,21.1c-0.3,1.5-0.8,2.6-1.5,3.2c-0.7,0.6-1.8,0.9-3.2,0.9H103.7l4.3-20.5h33.1
		c5.3,0,9.2-1.2,11.7-3.5c2.5-2.4,4.3-6,5.4-10.8l5.7-27.1c0.2-1.1,0.3-2,0.4-2.9c0.1-0.9,0.2-1.7,0.2-2.5c0-3.1-0.9-5.4-2.7-6.8
		C160,0.7,157,0,152.9,0h-51.6l-3.4,16.1h43.9c1.1,0,2,0.1,2.5,0.4c0.5,0.3,0.8,0.9,0.8,1.8c0,0.3-0.1,0.9-0.2,1.7l-3.5,16.2
		c-0.4,1.9-0.9,3.1-1.5,3.8c-0.6,0.6-1.7,1-3.2,1h-25.4l4-18.7H96.7L85.2,76.3H74.6L68.7,0H44.5L4.9,76.3L2.4,81l-0.3,1.4L0,92.4
		h212.9c5.3,0,9.2-1.2,11.7-3.5c2.5-2.4,4.3-6,5.4-10.8l7.1-32.2c0.2-1.2,0.4-2.4,0.4-3.4c0-2.6-0.8-4.6-2.3-6.1
		c-1.5-1.5-4-2.2-7.4-2.2h-33c-1.8,0-2.7-0.6-2.7-1.8c0-0.2,0-0.5,0.1-0.7C192.2,31.3,192.3,31.1,192.4,30.7z M52.4,16.5L55,56H32.5
		L52.4,16.5z M22.6,76.3l3.3-6.7h29.7l0.4,6.7H22.6z"/>
</g>
</svg>
